{
  "source": "C:\\Users\\Peter\\Desktop\\stuff\\MIUN\\quantitative_research\\video_compression\\videos\\HEVC_CLASS_B\\BQTerrace_1920x1080_60.y4m",
  "output": "C:\\Users\\Peter\\Desktop\\stuff\\MIUN\\quantitative_research\\video_compression\\compressed_videos\\HEVC_CLASS_B\\vp9\\3\\BQTerrace_1920x1080_60_vp9.webm",
  "codec": "vp9",
  "ok": "Input #0, yuv4mpegpipe, from 'C:\\Users\\Peter\\Desktop\\stuff\\MIUN\\quantitative_research\\video_compression\\videos\\HEVC_CLASS_B\\BQTerrace_1920x1080_60.y4m':\n  Duration: 00:00:10.00, start: 0.000000, bitrate: 1492994 kb/s\n  Stream #0:0: Video: rawvideo (I420 / 0x30323449), yuv420p(progressive), 1920x1080, 60 fps, 60 tbr, 60 tbn\n[out#0/webm @ 000001ee72e89a00] Codec AVOption b:a (set bitrate (in bits/s)) has not been used for any stream. The most likely reason is either wrong type (e.g. a video option with no video streams) or that it is a private option of some decoder which was not actually used for any stream.\nStream mapping:\n  Stream #0:0 -> #0:0 (rawvideo (native) -> vp9 (libvpx-vp9))\nPress [q] to stop, [?] for help\n[libvpx-vp9 @ 000001ee72e8ce00] v1.15.2-100-g40561f514\nOutput #0, webm, to 'C:\\Users\\Peter\\Desktop\\stuff\\MIUN\\quantitative_research\\video_compression\\compressed_videos\\HEVC_CLASS_B\\vp9\\3\\BQTerrace_1920x1080_60_vp9.webm':\n  Metadata:\n    encoder         : Lavf62.3.100\n  Stream #0:0: Video: vp9, yuv420p(tv, progressive), 1920x1080, q=2-31, 3000 kb/s, 60 fps, 1k tbn\n    Metadata:\n      encoder         : Lavc62.11.100 libvpx-vp9\n    Side data:\n      cpb: bitrate max/min/avg: 0/0/0 buffer size: 3000000 vbv_delay: N/A\nframe=    0 fps=0.0 q=0.0 size=       0KiB time=N/A bitrate=N/A speed=N/A elapsed=0:00:00.53    \nframe=    2 fps=1.7 q=57.0 size=       0KiB time=00:00:00.01 bitrate= 230.9kbits/s speed=0.0138x elapsed=0:00:01.20    \nframe=    5 fps=2.7 q=48.0 size=       0KiB time=00:00:00.08 bitrate=  46.2kbits/s speed=0.0458x elapsed=0:00:01.82    \nframe=    8 fps=3.4 q=46.0 size=       0KiB time=00:00:00.13 bitrate=  28.9kbits/s speed=0.0566x elapsed=0:00:02.35    \nframe=   11 fps=3.8 q=46.0 size=       0KiB time=00:00:00.18 bitrate=  21.0kbits/s speed=0.0635x elapsed=0:00:02.88    \nframe=   13 fps=3.8 q=38.0 size=       0KiB time=00:00:00.21 bitrate=  17.8kbits/s speed=0.0634x elapsed=0:00:03.41    \nframe=   16 fps=4.1 q=45.0 size=       0KiB time=00:00:00.26 bitrate=  14.4kbits/s speed=0.0676x elapsed=0:00:03.94    \nframe=   18 fps=4.0 q=45.0 size=       0KiB time=00:00:00.30 bitrate=  12.8kbits/s speed=0.0662x elapsed=0:00:04.52    \nframe=   21 fps=4.1 q=45.0 size=       0KiB time=00:00:00.35 bitrate=  11.0kbits/s speed=0.0689x elapsed=0:00:05.08    \nframe=   24 fps=4.2 q=45.0 size=       0KiB time=00:00:00.40 bitrate=   9.6kbits/s speed=0.0703x elapsed=0:00:05.69    \nframe=   26 fps=4.2 q=45.0 size=       0KiB time=00:00:00.43 bitrate=   8.9kbits/s speed=0.0696x elapsed=0:00:06.22    \nframe=   29 fps=4.3 q=45.0 size=       0KiB time=00:00:00.48 bitrate=   8.0kbits/s speed=0.0713x elapsed=0:00:06.77    \nframe=   32 fps=4.4 q=45.0 size=       0KiB time=00:00:00.53 bitrate=   7.2kbits/s speed=0.0728x elapsed=0:00:07.32    \nframe=   35 fps=4.4 q=45.0 size=       0KiB time=00:00:00.58 bitrate=   6.6kbits/s speed=0.0733x elapsed=0:00:07.95    \nframe=   37 fps=4.3 q=34.0 size=       0KiB time=00:00:00.61 bitrate=   6.2kbits/s speed=0.0722x elapsed=0:00:08.54    \nframe=   40 fps=4.4 q=44.0 size=       0KiB time=00:00:00.66 bitrate=   5.8kbits/s speed=0.0732x elapsed=0:00:09.10    \nframe=   42 fps=4.3 q=45.0 size=       0KiB time=00:00:00.70 bitrate=   5.5kbits/s speed=0.0725x elapsed=0:00:09.65    \nframe=   44 fps=4.3 q=45.0 size=       0KiB time=00:00:00.73 bitrate=   5.2kbits/s speed=0.072x elapsed=0:00:10.18    \nframe=   47 fps=4.4 q=45.0 size=       0KiB time=00:00:00.78 bitrate=   4.9kbits/s speed=0.073x elapsed=0:00:10.73    \nframe=   49 fps=4.3 q=33.0 size=       0KiB time=00:00:00.81 bitrate=   4.7kbits/s speed=0.0721x elapsed=0:00:11.32    \nframe=   52 fps=4.4 q=44.0 size=       0KiB time=00:00:00.86 bitrate=   4.4kbits/s speed=0.0727x elapsed=0:00:11.91    \nframe=   55 fps=4.4 q=45.0 size=       0KiB time=00:00:00.91 bitrate=   4.2kbits/s speed=0.0736x elapsed=0:00:12.44    \nframe=   59 fps=4.5 q=45.0 size=       0KiB time=00:00:00.96 bitrate=   4.0kbits/s speed=0.0745x elapsed=0:00:12.96    \nframe=   60 fps=4.4 q=46.0 size=       0KiB time=00:00:01.00 bitrate=   3.8kbits/s speed=0.0739x elapsed=0:00:13.52    \nframe=   63 fps=4.5 q=43.0 size=       0KiB time=00:00:01.05 bitrate=   3.7kbits/s speed=0.0747x elapsed=0:00:14.05    \nframe=   67 fps=4.6 q=45.0 size=       0KiB time=00:00:01.10 bitrate=   3.5kbits/s speed=0.0756x elapsed=0:00:14.55    \nframe=   70 fps=4.6 q=45.0 size=       0KiB time=00:00:01.15 bitrate=   3.3kbits/s speed=0.0761x elapsed=0:00:15.11    \nframe=   72 fps=4.6 q=45.0 size=       0KiB time=00:00:01.20 bitrate=   3.2kbits/s speed=0.0765x elapsed=0:00:15.67    \nframe=   75 fps=4.6 q=43.0 size=       0KiB time=00:00:01.25 bitrate=   3.1kbits/s speed=0.0771x elapsed=0:00:16.21    \nframe=   78 fps=4.6 q=46.0 size=       0KiB time=00:00:01.30 bitrate=   3.0kbits/s speed=0.0774x elapsed=0:00:16.79    \nframe=   81 fps=4.7 q=46.0 size=       0KiB time=00:00:01.35 bitrate=   2.9kbits/s speed=0.0776x elapsed=0:00:17.40    \nframe=   84 fps=4.7 q=47.0 size=       0KiB time=00:00:01.40 bitrate=   2.7kbits/s speed=0.078x elapsed=0:00:17.94    \nframe=   86 fps=4.7 q=43.0 size=       0KiB time=00:00:01.43 bitrate=   2.7kbits/s speed=0.0776x elapsed=0:00:18.48    \nframe=   89 fps=4.7 q=43.0 size=       0KiB time=00:00:01.48 bitrate=   2.6kbits/s speed=0.0779x elapsed=0:00:19.03    \nframe=   92 fps=4.7 q=44.0 size=       0KiB time=00:00:01.53 bitrate=   2.5kbits/s speed=0.0781x elapsed=0:00:19.64    \nframe=   95 fps=4.7 q=45.0 size=       0KiB time=00:00:01.58 bitrate=   2.4kbits/s speed=0.0782x elapsed=0:00:20.25    \nframe=   98 fps=4.7 q=47.0 size=       0KiB time=00:00:01.61 bitrate=   2.4kbits/s speed=0.0777x elapsed=0:00:20.80    \nframe=  100 fps=4.7 q=45.0 size=       0KiB time=00:00:01.66 bitrate=   2.3kbits/s speed=0.078x elapsed=0:00:21.36    \nframe=  103 fps=4.7 q=38.0 size=       0KiB time=00:00:01.71 bitrate=   2.2kbits/s speed=0.0784x elapsed=0:00:21.90    \nframe=  105 fps=4.7 q=44.0 size=       0KiB time=00:00:01.75 bitrate=   2.2kbits/s speed=0.0778x elapsed=0:00:22.48    \nframe=  108 fps=4.7 q=46.0 size=       0KiB time=00:00:01.80 bitrate=   2.1kbits/s speed=0.0781x elapsed=0:00:23.04    \nframe=  111 fps=4.7 q=43.0 size=       0KiB time=00:00:01.85 bitrate=   2.1kbits/s speed=0.078x elapsed=0:00:23.71    \nframe=  114 fps=4.7 q=44.0 size=       0KiB time=00:00:01.90 bitrate=   2.0kbits/s speed=0.0782x elapsed=0:00:24.29    \nframe=  117 fps=4.7 q=42.0 size=       0KiB time=00:00:01.95 bitrate=   2.0kbits/s speed=0.0784x elapsed=0:00:24.87    \nframe=  120 fps=4.7 q=44.0 size=       0KiB time=00:00:02.00 bitrate=   1.9kbits/s speed=0.0786x elapsed=0:00:25.45    \nframe=  122 fps=4.7 q=45.0 size=       0KiB time=00:00:02.03 bitrate=   1.9kbits/s speed=0.0779x elapsed=0:00:26.08    \nframe=  126 fps=4.7 q=44.0 size=       0KiB time=00:00:02.08 bitrate=   1.8kbits/s speed=0.0783x elapsed=0:00:26.60    \nframe=  128 fps=4.7 q=44.0 size=       0KiB time=00:00:02.13 bitrate=   1.8kbits/s speed=0.0784x elapsed=0:00:27.22    \nframe=  130 fps=4.7 q=42.0 size=     768KiB time=00:00:02.16 bitrate=2903.7kbits/s speed=0.0777x elapsed=0:00:27.90    \nframe=  133 fps=4.7 q=44.0 size=     768KiB time=00:00:02.21 bitrate=2838.3kbits/s speed=0.0779x elapsed=0:00:28.43    \nframe=  137 fps=4.7 q=43.0 size=     768KiB time=00:00:02.26 bitrate=2775.6kbits/s speed=0.0782x elapsed=0:00:28.97    \nframe=  140 fps=4.7 q=33.0 size=     768KiB time=00:00:02.31 bitrate=2715.7kbits/s speed=0.0784x elapsed=0:00:29.56    \nframe=  143 fps=4.7 q=41.0 size=     768KiB time=00:00:02.38 bitrate=2639.8kbits/s speed=0.0791x elapsed=0:00:30.12    \nframe=  146 fps=4.7 q=42.0 size=     768KiB time=00:00:02.43 bitrate=2585.5kbits/s speed=0.0791x elapsed=0:00:30.76    \nframe=  149 fps=4.8 q=42.0 size=     768KiB time=00:00:02.48 bitrate=2533.5kbits/s speed=0.0793x elapsed=0:00:31.30    \nframe=  151 fps=4.7 q=42.0 size=     768KiB time=00:00:02.51 bitrate=2499.9kbits/s speed=0.079x elapsed=0:00:31.86    \nframe=  154 fps=4.7 q=39.0 size=     768KiB time=00:00:02.56 bitrate=2451.2kbits/s speed=0.0791x elapsed=0:00:32.42    \nframe=  157 fps=4.8 q=41.0 size=     768KiB time=00:00:02.61 bitrate=2404.4kbits/s speed=0.0794x elapsed=0:00:32.95    \nframe=  160 fps=4.8 q=42.0 size=     768KiB time=00:00:02.66 bitrate=2359.3kbits/s speed=0.0796x elapsed=0:00:33.50    \nframe=  163 fps=4.8 q=42.0 size=     768KiB time=00:00:02.71 bitrate=2315.9kbits/s speed=0.0798x elapsed=0:00:34.03    \nframe=  166 fps=4.8 q=39.0 size=     768KiB time=00:00:02.76 bitrate=2274.0kbits/s speed=0.08x elapsed=0:00:34.59    \nframe=  169 fps=4.8 q=40.0 size=     768KiB time=00:00:02.81 bitrate=2233.7kbits/s speed=0.08x elapsed=0:00:35.21    \nframe=  172 fps=4.8 q=41.0 size=     768KiB time=00:00:02.86 bitrate=2194.7kbits/s speed=0.0802x elapsed=0:00:35.74    \nframe=  175 fps=4.8 q=41.0 size=     768KiB time=00:00:02.91 bitrate=2157.1kbits/s speed=0.0803x elapsed=0:00:36.30    \nframe=  178 fps=4.8 q=39.0 size=     768KiB time=00:00:02.96 bitrate=2120.7kbits/s speed=0.0805x elapsed=0:00:36.83    \nframe=  181 fps=4.8 q=40.0 size=     768KiB time=00:00:03.01 bitrate=2085.6kbits/s speed=0.0806x elapsed=0:00:37.41    \nframe=  184 fps=4.8 q=41.0 size=     768KiB time=00:00:03.06 bitrate=2051.6kbits/s speed=0.0808x elapsed=0:00:37.97    \nframe=  187 fps=4.8 q=41.0 size=     768KiB time=00:00:03.11 bitrate=2018.6kbits/s speed=0.0807x elapsed=0:00:38.60    \nframe=  190 fps=4.8 q=39.0 size=     768KiB time=00:00:03.15 bitrate=1997.3kbits/s speed=0.0804x elapsed=0:00:39.18    \nframe=  193 fps=4.8 q=40.0 size=     768KiB time=00:00:03.21 bitrate=1955.9kbits/s speed=0.0808x elapsed=0:00:39.82    \nframe=  196 fps=4.9 q=40.0 size=     768KiB time=00:00:03.26 bitrate=1926.0kbits/s speed=0.0809x elapsed=0:00:40.38    \nframe=  199 fps=4.9 q=40.0 size=     768KiB time=00:00:03.31 bitrate=1896.9kbits/s speed=0.0809x elapsed=0:00:40.97    \nframe=  202 fps=4.9 q=39.0 size=     768KiB time=00:00:03.36 bitrate=1868.7kbits/s speed=0.081x elapsed=0:00:41.54    \nframe=  205 fps=4.9 q=39.0 size=     768KiB time=00:00:03.41 bitrate=1841.4kbits/s speed=0.0812x elapsed=0:00:42.05    \nframe=  209 fps=4.9 q=40.0 size=     768KiB time=00:00:03.48 bitrate=1806.2kbits/s speed=0.0818x elapsed=0:00:42.60    \nframe=  211 fps=4.9 q=40.0 size=     768KiB time=00:00:03.51 bitrate=1789.0kbits/s speed=0.0815x elapsed=0:00:43.16    \nframe=  214 fps=4.9 q=39.0 size=     768KiB time=00:00:03.56 bitrate=1764.0kbits/s speed=0.0816x elapsed=0:00:43.69    \nframe=  217 fps=4.9 q=40.0 size=     768KiB time=00:00:03.61 bitrate=1739.6kbits/s speed=0.0816x elapsed=0:00:44.30    \nframe=  220 fps=4.9 q=41.0 size=     768KiB time=00:00:03.66 bitrate=1715.9kbits/s speed=0.0817x elapsed=0:00:44.85    \nframe=  223 fps=4.9 q=41.0 size=     768KiB time=00:00:03.71 bitrate=1692.8kbits/s speed=0.0819x elapsed=0:00:45.38    \nframe=  226 fps=4.9 q=39.0 size=     768KiB time=00:00:03.76 bitrate=1670.3kbits/s speed=0.0819x elapsed=0:00:45.96    \nframe=  229 fps=4.9 q=40.0 size=     768KiB time=00:00:03.81 bitrate=1648.4kbits/s speed=0.082x elapsed=0:00:46.54    \nframe=  232 fps=4.9 q=40.0 size=     768KiB time=00:00:03.86 bitrate=1627.1kbits/s speed=0.082x elapsed=0:00:47.14    \nframe=  235 fps=4.9 q=40.0 size=     768KiB time=00:00:03.91 bitrate=1606.3kbits/s speed=0.0822x elapsed=0:00:47.66    \nframe=  238 fps=4.9 q=40.0 size=     768KiB time=00:00:03.96 bitrate=1586.1kbits/s speed=0.0822x elapsed=0:00:48.26    \nframe=  242 fps=5.0 q=41.0 size=     768KiB time=00:00:04.03 bitrate=1559.9kbits/s speed=0.0827x elapsed=0:00:48.78    \nframe=  245 fps=5.0 q=41.0 size=     768KiB time=00:00:04.08 bitrate=1540.8kbits/s speed=0.0827x elapsed=0:00:49.38    \nframe=  249 fps=5.0 q=40.0 size=     768KiB time=00:00:04.15 bitrate=1516.0kbits/s speed=0.083x elapsed=0:00:49.97    \nframe=  252 fps=5.0 q=42.0 size=     768KiB time=00:00:04.20 bitrate=1498.0kbits/s speed=0.0831x elapsed=0:00:50.55    \nframe=  255 fps=5.0 q=43.0 size=     768KiB time=00:00:04.25 bitrate=1480.3kbits/s speed=0.0832x elapsed=0:00:51.08    \nframe=  256 fps=5.0 q=42.0 size=     768KiB time=00:00:04.26 bitrate=1474.6kbits/s speed=0.0827x elapsed=0:00:51.62    \nframe=  260 fps=5.0 q=42.0 size=    1536KiB time=00:00:04.33 bitrate=2903.7kbits/s speed=0.0831x elapsed=0:00:52.15    \nframe=  264 fps=5.0 q=42.0 size=    1536KiB time=00:00:04.40 bitrate=2859.8kbits/s speed=0.0834x elapsed=0:00:52.74    \nframe=  267 fps=5.0 q=42.0 size=    1536KiB time=00:00:04.45 bitrate=2827.6kbits/s speed=0.0835x elapsed=0:00:53.31    \nframe=  270 fps=5.0 q=42.0 size=    1536KiB time=00:00:04.48 bitrate=2806.6kbits/s speed=0.0831x elapsed=0:00:53.91    \nframe=  272 fps=5.0 q=40.0 size=    1536KiB time=00:00:04.53 bitrate=2775.6kbits/s speed=0.0831x elapsed=0:00:54.56    \nframe=  275 fps=5.0 q=41.0 size=    1536KiB time=00:00:04.58 bitrate=2745.4kbits/s speed=0.0831x elapsed=0:00:55.16    \nframe=  279 fps=5.0 q=42.0 size=    1536KiB time=00:00:04.65 bitrate=2706.0kbits/s speed=0.0835x elapsed=0:00:55.71    \nframe=  280 fps=5.0 q=42.0 size=    1536KiB time=00:00:04.66 bitrate=2696.3kbits/s speed=0.0829x elapsed=0:00:56.26    \nframe=  283 fps=5.0 q=41.0 size=    1536KiB time=00:00:04.71 bitrate=2667.8kbits/s speed=0.083x elapsed=0:00:56.79    \nframe=  286 fps=5.0 q=42.0 size=    1536KiB time=00:00:04.76 bitrate=2639.8kbits/s speed=0.0831x elapsed=0:00:57.34    \nframe=  290 fps=5.0 q=42.0 size=    1536KiB time=00:00:04.81 bitrate=2612.4kbits/s speed=0.0832x elapsed=0:00:57.88    \nframe=  292 fps=5.0 q=41.0 size=    1536KiB time=00:00:04.86 bitrate=2585.5kbits/s speed=0.0833x elapsed=0:00:58.40    \nframe=  295 fps=5.0 q=40.0 size=    1536KiB time=00:00:04.91 bitrate=2559.2kbits/s speed=0.0834x elapsed=0:00:58.98    \nframe=  298 fps=5.0 q=41.0 size=    1536KiB time=00:00:04.96 bitrate=2533.5kbits/s speed=0.0835x elapsed=0:00:59.51    \nframe=  301 fps=5.0 q=43.0 size=    1536KiB time=00:00:05.01 bitrate=2508.2kbits/s speed=0.0835x elapsed=0:01:00.05    \nframe=  304 fps=5.0 q=43.0 size=    1536KiB time=00:00:05.06 bitrate=2483.5kbits/s speed=0.0835x elapsed=0:01:00.65    \nframe=  306 fps=5.0 q=44.0 size=    1536KiB time=00:00:05.10 bitrate=2467.2kbits/s speed=0.0834x elapsed=0:01:01.17    \nframe=  309 fps=5.0 q=41.0 size=    1536KiB time=00:00:05.15 bitrate=2443.3kbits/s speed=0.0834x elapsed=0:01:01.73    \nframe=  312 fps=5.0 q=41.0 size=    1536KiB time=00:00:05.20 bitrate=2419.8kbits/s speed=0.0835x elapsed=0:01:02.31    \nframe=  315 fps=5.0 q=42.0 size=    1536KiB time=00:00:05.25 bitrate=2396.7kbits/s speed=0.0835x elapsed=0:01:02.86    \nframe=  318 fps=5.0 q=44.0 size=    1536KiB time=00:00:05.28 bitrate=2381.6kbits/s speed=0.0833x elapsed=0:01:03.41    \nframe=  320 fps=5.0 q=43.0 size=    1536KiB time=00:00:05.33 bitrate=2359.3kbits/s speed=0.0832x elapsed=0:01:04.07    \nframe=  323 fps=5.0 q=35.0 size=    1536KiB time=00:00:05.36 bitrate=2344.6kbits/s speed=0.0831x elapsed=0:01:04.61    \nframe=  326 fps=5.0 q=43.0 size=    1536KiB time=00:00:05.43 bitrate=2315.9kbits/s speed=0.0833x elapsed=0:01:05.20    \nframe=  329 fps=5.0 q=44.0 size=    1536KiB time=00:00:05.48 bitrate=2294.8kbits/s speed=0.0832x elapsed=0:01:05.92    \nframe=  332 fps=5.0 q=44.0 size=    1536KiB time=00:00:05.53 bitrate=2274.0kbits/s speed=0.0831x elapsed=0:01:06.55    \nframe=  334 fps=5.0 q=44.0 size=    1536KiB time=00:00:05.56 bitrate=2260.4kbits/s speed=0.0829x elapsed=0:01:07.13    \nframe=  337 fps=5.0 q=44.0 size=    1536KiB time=00:00:05.61 bitrate=2240.3kbits/s speed=0.083x elapsed=0:01:07.67    \nframe=  340 fps=5.0 q=44.0 size=    1536KiB time=00:00:05.66 bitrate=2220.5kbits/s speed=0.083x elapsed=0:01:08.28    \nframe=  344 fps=5.0 q=45.0 size=    1536KiB time=00:00:05.73 bitrate=2194.7kbits/s speed=0.0833x elapsed=0:01:08.82    \nframe=  346 fps=5.0 q=45.0 size=    1536KiB time=00:00:05.76 bitrate=2182.0kbits/s speed=0.0831x elapsed=0:01:09.42    \nframe=  349 fps=5.0 q=43.0 size=    1536KiB time=00:00:05.81 bitrate=2163.3kbits/s speed=0.0831x elapsed=0:01:09.95    \nframe=  352 fps=5.0 q=44.0 size=    1536KiB time=00:00:05.86 bitrate=2144.8kbits/s speed=0.0832x elapsed=0:01:10.55    \nframe=  355 fps=5.0 q=44.0 size=    1536KiB time=00:00:05.91 bitrate=2126.7kbits/s speed=0.0832x elapsed=0:01:11.07    \nframe=  358 fps=5.0 q=45.0 size=    1536KiB time=00:00:05.96 bitrate=2108.9kbits/s speed=0.0833x elapsed=0:01:11.63    \nframe=  360 fps=5.0 q=44.0 size=    1536KiB time=00:00:06.00 bitrate=2097.2kbits/s speed=0.0831x elapsed=0:01:12.23    \nframe=  364 fps=5.0 q=43.0 size=    1536KiB time=00:00:06.05 bitrate=2079.8kbits/s speed=0.0831x elapsed=0:01:12.84    \nframe=  366 fps=5.0 q=43.0 size=    1536KiB time=00:00:06.10 bitrate=2062.8kbits/s speed=0.083x elapsed=0:01:13.49    \nframe=  369 fps=5.0 q=44.0 size=    1536KiB time=00:00:06.15 bitrate=2046.0kbits/s speed=0.083x elapsed=0:01:14.09    \nframe=  372 fps=5.0 q=47.0 size=    1536KiB time=00:00:06.20 bitrate=2029.5kbits/s speed=0.083x elapsed=0:01:14.66    \nframe=  375 fps=5.0 q=45.0 size=    1536KiB time=00:00:06.25 bitrate=2013.3kbits/s speed=0.0831x elapsed=0:01:15.23    \nframe=  377 fps=5.0 q=45.0 size=    1536KiB time=00:00:06.28 bitrate=2002.6kbits/s speed=0.0828x elapsed=0:01:15.85    \nframe=  380 fps=5.0 q=43.0 size=    1536KiB time=00:00:06.33 bitrate=1986.8kbits/s speed=0.0829x elapsed=0:01:16.36    \nframe=  383 fps=5.0 q=44.0 size=    1536KiB time=00:00:06.38 bitrate=1971.2kbits/s speed=0.083x elapsed=0:01:16.93    \nframe=  384 fps=5.0 q=44.0 size=    1536KiB time=00:00:06.40 bitrate=1966.1kbits/s speed=0.0826x elapsed=0:01:17.49    \nframe=  387 fps=5.0 q=42.0 size=    2560KiB time=00:00:06.45 bitrate=3251.4kbits/s speed=0.0826x elapsed=0:01:18.10    \nframe=  391 fps=5.0 q=42.0 size=    2560KiB time=00:00:06.51 bitrate=3218.1kbits/s speed=0.0829x elapsed=0:01:18.63    \nframe=  394 fps=5.0 q=43.0 size=    2560KiB time=00:00:06.56 bitrate=3193.6kbits/s speed=0.0829x elapsed=0:01:19.17    \nframe=  396 fps=5.0 q=43.0 size=    2560KiB time=00:00:06.60 bitrate=3177.5kbits/s speed=0.0828x elapsed=0:01:19.69    \nframe=  398 fps=5.0 q=45.0 size=    2560KiB time=00:00:06.63 bitrate=3161.5kbits/s speed=0.0826x elapsed=0:01:20.28    \nframe=  400 fps=4.9 q=42.0 size=    2560KiB time=00:00:06.66 bitrate=3145.7kbits/s speed=0.0825x elapsed=0:01:20.82    \nframe=  403 fps=4.9 q=44.0 size=    2560KiB time=00:00:06.71 bitrate=3122.3kbits/s speed=0.0825x elapsed=0:01:21.42    \nframe=  406 fps=4.9 q=43.0 size=    2560KiB time=00:00:06.76 bitrate=3099.2kbits/s speed=0.0824x elapsed=0:01:22.12    \nframe=  408 fps=4.9 q=44.0 size=    2560KiB time=00:00:06.80 bitrate=3084.0kbits/s speed=0.0822x elapsed=0:01:22.70    \nframe=  410 fps=4.9 q=43.0 size=    2560KiB time=00:00:06.83 bitrate=3069.0kbits/s speed=0.082x elapsed=0:01:23.29    \nframe=  413 fps=4.9 q=43.0 size=    2560KiB time=00:00:06.88 bitrate=3046.7kbits/s speed=0.0821x elapsed=0:01:23.83    \nframe=  415 fps=4.9 q=43.0 size=    2560KiB time=00:00:06.91 bitrate=3032.0kbits/s speed=0.0819x elapsed=0:01:24.44    \nframe=  418 fps=4.9 q=44.0 size=    2560KiB time=00:00:06.96 bitrate=3010.3kbits/s speed=0.082x elapsed=0:01:24.97    \nframe=  420 fps=4.9 q=44.0 size=    2560KiB time=00:00:07.00 bitrate=2995.9kbits/s speed=0.0818x elapsed=0:01:25.56    \nframe=  422 fps=4.9 q=43.0 size=    2560KiB time=00:00:07.03 bitrate=2981.7kbits/s speed=0.0816x elapsed=0:01:26.17    \nframe=  424 fps=4.9 q=42.0 size=    2560KiB time=00:00:07.06 bitrate=2967.7kbits/s speed=0.0815x elapsed=0:01:26.71    \nframe=  427 fps=4.9 q=42.0 size=    2560KiB time=00:00:07.11 bitrate=2946.8kbits/s speed=0.0815x elapsed=0:01:27.27    \nframe=  429 fps=4.9 q=43.0 size=    2560KiB time=00:00:07.15 bitrate=2933.1kbits/s speed=0.0813x elapsed=0:01:27.93    \nframe=  431 fps=4.9 q=43.0 size=    2560KiB time=00:00:07.18 bitrate=2919.5kbits/s speed=0.0811x elapsed=0:01:28.53    \nframe=  433 fps=4.9 q=35.0 size=    2560KiB time=00:00:07.21 bitrate=2906.0kbits/s speed=0.081x elapsed=0:01:29.10    \nframe=  436 fps=4.9 q=42.0 size=    2560KiB time=00:00:07.26 bitrate=2886.0kbits/s speed=0.0811x elapsed=0:01:29.65    \nframe=  440 fps=4.9 q=42.0 size=    2560KiB time=00:00:07.33 bitrate=2859.8kbits/s speed=0.0813x elapsed=0:01:30.18    \nframe=  443 fps=4.9 q=42.0 size=    2560KiB time=00:00:07.38 bitrate=2840.4kbits/s speed=0.0813x elapsed=0:01:30.76    \nframe=  446 fps=4.9 q=43.0 size=    2560KiB time=00:00:07.43 bitrate=2821.3kbits/s speed=0.0814x elapsed=0:01:31.32    \nframe=  449 fps=4.9 q=43.0 size=    2560KiB time=00:00:07.48 bitrate=2802.4kbits/s speed=0.0815x elapsed=0:01:31.86    \nframe=  453 fps=4.9 q=41.0 size=    2560KiB time=00:00:07.55 bitrate=2777.7kbits/s speed=0.0817x elapsed=0:01:32.40    \nframe=  456 fps=4.9 q=43.0 size=    2560KiB time=00:00:07.60 bitrate=2759.4kbits/s speed=0.0818x elapsed=0:01:32.94    \nframe=  459 fps=4.9 q=41.0 size=    2560KiB time=00:00:07.65 bitrate=2741.4kbits/s speed=0.0818x elapsed=0:01:33.48    \nframe=  463 fps=4.9 q=43.0 size=    2560KiB time=00:00:07.71 bitrate=2717.7kbits/s speed=0.0821x elapsed=0:01:34.01    \nframe=  467 fps=4.9 q=43.0 size=    2560KiB time=00:00:07.78 bitrate=2694.4kbits/s speed=0.0823x elapsed=0:01:34.55    \nframe=  470 fps=4.9 q=44.0 size=    2560KiB time=00:00:07.83 bitrate=2677.2kbits/s speed=0.0824x elapsed=0:01:35.06    \nframe=  474 fps=5.0 q=44.0 size=    2560KiB time=00:00:07.90 bitrate=2654.6kbits/s speed=0.0826x elapsed=0:01:35.59    \nframe=  477 fps=5.0 q=44.0 size=    2560KiB time=00:00:07.95 bitrate=2637.9kbits/s speed=0.0827x elapsed=0:01:36.18    \nframe=  480 fps=5.0 q=44.0 size=    2560KiB time=00:00:08.00 bitrate=2621.4kbits/s speed=0.0827x elapsed=0:01:36.72    \nframe=  484 fps=5.0 q=42.0 size=    2560KiB time=00:00:08.06 bitrate=2599.8kbits/s speed=0.083x elapsed=0:01:37.23    \nframe=  488 fps=5.0 q=44.0 size=    2560KiB time=00:00:08.13 bitrate=2578.5kbits/s speed=0.0832x elapsed=0:01:37.77    \nframe=  492 fps=5.0 q=44.0 size=    2560KiB time=00:00:08.20 bitrate=2557.5kbits/s speed=0.0834x elapsed=0:01:38.32    \nframe=  496 fps=5.0 q=43.0 size=    2560KiB time=00:00:08.26 bitrate=2536.9kbits/s speed=0.0836x elapsed=0:01:38.92    \nframe=  500 fps=5.0 q=44.0 size=    2560KiB time=00:00:08.33 bitrate=2516.6kbits/s speed=0.0838x elapsed=0:01:39.44    \nframe=  503 fps=5.0 q=32.0 size=    2560KiB time=00:00:08.38 bitrate=2501.6kbits/s speed=0.0838x elapsed=0:01:39.99    \nframe=  508 fps=5.1 q=44.0 size=    2560KiB time=00:00:08.46 bitrate=2477.0kbits/s speed=0.0842x elapsed=0:01:40.53    \nframe=  512 fps=5.1 q=44.0 size=    2560KiB time=00:00:08.53 bitrate=2457.6kbits/s speed=0.0844x elapsed=0:01:41.10    \nframe=  515 fps=5.1 q=43.0 size=    3584KiB time=00:00:08.58 bitrate=3420.6kbits/s speed=0.0844x elapsed=0:01:41.63    \nframe=  519 fps=5.1 q=44.0 size=    3584KiB time=00:00:08.65 bitrate=3394.2kbits/s speed=0.0847x elapsed=0:01:42.17    \nframe=  523 fps=5.1 q=45.0 size=    3584KiB time=00:00:08.71 bitrate=3368.3kbits/s speed=0.0849x elapsed=0:01:42.69    \nframe=  527 fps=5.1 q=44.0 size=    3584KiB time=00:00:08.78 bitrate=3342.7kbits/s speed=0.0851x elapsed=0:01:43.25    \nframe=  532 fps=5.1 q=45.0 size=    3584KiB time=00:00:08.86 bitrate=3311.3kbits/s speed=0.0854x elapsed=0:01:43.84    \nframe=  535 fps=5.1 q=34.0 size=    3584KiB time=00:00:08.91 bitrate=3292.7kbits/s speed=0.0854x elapsed=0:01:44.38    \nframe=  539 fps=5.1 q=44.0 size=    3584KiB time=00:00:08.98 bitrate=3268.3kbits/s speed=0.0856x elapsed=0:01:44.91    \nframe=  543 fps=5.1 q=44.0 size=    3584KiB time=00:00:09.05 bitrate=3244.2kbits/s speed=0.0858x elapsed=0:01:45.46    \nframe=  546 fps=5.1 q=45.0 size=    3584KiB time=00:00:09.10 bitrate=3226.4kbits/s speed=0.0858x elapsed=0:01:46.02    \nframe=  551 fps=5.2 q=42.0 size=    3584KiB time=00:00:09.18 bitrate=3197.1kbits/s speed=0.0862x elapsed=0:01:46.54    \nframe=  555 fps=5.2 q=42.0 size=    3584KiB time=00:00:09.25 bitrate=3174.1kbits/s speed=0.0864x elapsed=0:01:47.09    \nframe=  558 fps=5.2 q=43.0 size=    3584KiB time=00:00:09.30 bitrate=3157.0kbits/s speed=0.0864x elapsed=0:01:47.61    \nframe=  562 fps=5.2 q=42.0 size=    3584KiB time=00:00:09.36 bitrate=3134.5kbits/s speed=0.0866x elapsed=0:01:48.14    \nframe=  566 fps=5.2 q=43.0 size=    3584KiB time=00:00:09.43 bitrate=3112.4kbits/s speed=0.0868x elapsed=0:01:48.66    \nframe=  570 fps=5.2 q=43.0 size=    3584KiB time=00:00:09.50 bitrate=3090.5kbits/s speed=0.087x elapsed=0:01:49.18    \nframe=  573 fps=5.2 q=42.0 size=    3584KiB time=00:00:09.55 bitrate=3074.4kbits/s speed=0.087x elapsed=0:01:49.72    \nframe=  576 fps=5.2 q=42.0 size=    3584KiB time=00:00:09.60 bitrate=3058.3kbits/s speed=0.0871x elapsed=0:01:50.26    \nframe=  576 fps=5.2 q=42.0 size=    3584KiB time=00:00:09.60 bitrate=3058.3kbits/s speed=0.0866x elapsed=0:01:50.83    \nframe=  576 fps=5.2 q=42.0 size=    3584KiB time=00:00:09.60 bitrate=3058.3kbits/s speed=0.0862x elapsed=0:01:51.39    \nframe=  576 fps=5.1 q=42.0 size=    3584KiB time=00:00:09.60 bitrate=3058.3kbits/s speed=0.0858x elapsed=0:01:51.90    \nframe=  576 fps=5.1 q=42.0 size=    3584KiB time=00:00:09.60 bitrate=3058.3kbits/s speed=0.0854x elapsed=0:01:52.42    \nframe=  576 fps=5.1 q=42.0 size=    3584KiB time=00:00:09.60 bitrate=3058.3kbits/s speed=0.085x elapsed=0:01:52.95    \nframe=  576 fps=5.1 q=42.0 size=    3584KiB time=00:00:09.60 bitrate=3058.3kbits/s speed=0.0846x elapsed=0:01:53.48    \n[out#0/webm @ 000001ee72e89a00] video:4331KiB audio:0KiB subtitle:0KiB other streams:0KiB global headers:0KiB muxing overhead: 0.110154%\nframe=  600 fps=5.3 q=43.0 Lsize=    4336KiB time=00:00:10.00 bitrate=3551.7kbits/s speed=0.0879x elapsed=0:01:53.72    \n",
  "seconds": 113.9106068611145,
  "probe_out": {}
}